# xmcd
#
# Track frame offsets:
#	150
#	9973
#	21304
#	37619
#	53777
#	61495
#	73366
#	85610
#	95596
#	109039
#	120686
#	132693
#	145909
#	162451
#	177285
#	189156
#
# Disc length: 2756 seconds
#
# Revision: 0
# Processed by: cddbd v1.5.1PL0 Copyright (c) Steve Scherf et al.
# Submitted via: audiograbber 1.83.01
#
DISCID=d90ac210
DTITLE=Verschiedene - The Country Club Collection Country Nr. 1 Hits
DYEAR=2005
DGENRE=Country
TTITLE0=Johnny Cash - Ballad of a Tennage Queen
TTITLE1=Kitty Wells - It was'nt god who made Honky Tonk Angels
TTITLE2=Janie Fricke - Always have always will
TTITLE3=BJ Thomas - Another Somebody done somebody wrong song
TTITLE4=Roger Miller - Dang Me
TTITLE5=Lynn Anderson - How can I unlove You
TTITLE6=Porter Wagoner - A Satisfied Mind
TTITLE7=Faron Young - Hello Walls
TTITLE8=David Houston - Almost Persuaded
TTITLE9=Donna Fargo - The Happiest Girl in the whole U.S.A.
TTITLE10=Johnny Paycheck - Take this Job and Shove it
TTITLE11=Mickey Gilley - I overlooked an Orchid
TTITLE12=TG Sheppard - Last cheaters Waltz
TTITLE13=Don Gibson - Woman
TTITLE14=Jack Greene - There goes my everything
TTITLE15=Glen Campbell - Southern Nights
EXTD=
EXTT0=
EXTT1=
EXTT2=
EXTT3=
EXTT4=
EXTT5=
EXTT6=
EXTT7=
EXTT8=
EXTT9=
EXTT10=
EXTT11=
EXTT12=
EXTT13=
EXTT14=
EXTT15=
PLAYORDER=
